<svg width="638" height="640" viewBox="0 0 638 640" fill="none" xmlns="http://www.w3.org/2000/svg">
<mask id="path-1-inside-1" fill="white">
<path d="M301.056 13.5912C307.981 5.04478 321.019 5.04479 327.944 13.5912L339.415 27.7483C345.252 34.9509 355.728 36.2743 363.172 30.7494L377.804 19.89C386.637 13.3343 399.264 16.5765 403.847 26.5767L411.437 43.1418C415.299 51.5696 425.116 55.4566 433.701 51.9566L450.573 45.0771C460.759 40.9241 472.184 47.2049 474.135 58.0305L477.368 75.9628C479.012 85.0862 487.555 91.2927 496.74 90.0374L514.793 87.5702C525.692 86.0807 535.196 95.0054 534.394 105.976L533.065 124.149C532.389 133.395 539.12 141.531 548.328 142.599L566.428 144.699C577.355 145.967 584.341 156.975 580.835 167.401L575.029 184.673C572.075 193.46 576.571 203.014 585.224 206.339L602.233 212.874C612.501 216.819 616.53 229.219 610.542 238.446L600.623 253.731C595.576 261.507 597.555 271.879 605.11 277.252L619.959 287.812C628.923 294.187 629.742 307.198 621.647 314.646L608.239 326.984C601.417 333.261 600.754 343.8 606.735 350.882L618.492 364.803C625.589 373.207 623.146 386.014 613.453 391.215L597.398 399.83C589.229 404.214 585.966 414.256 589.998 422.604L597.924 439.011C602.708 448.916 597.157 460.713 586.475 463.34L568.781 467.692C559.779 469.906 554.121 478.821 555.951 487.909L559.547 505.772C561.718 516.556 553.407 526.602 542.408 526.49L524.187 526.305C514.917 526.211 507.22 533.439 506.732 542.696L505.773 560.892C505.194 571.877 494.646 579.54 484.02 576.697L466.418 571.986C457.463 569.59 448.21 574.676 445.435 583.522L439.98 600.908C436.688 611.403 424.566 616.203 414.981 610.806L399.103 601.866C391.025 597.317 380.798 599.943 375.91 607.821L366.304 623.304C360.504 632.651 347.57 634.285 339.628 626.674L326.473 614.066C319.78 607.652 309.22 607.652 302.527 614.066L289.372 626.674C281.43 634.285 268.496 632.651 262.696 623.304L253.09 607.821C248.202 599.943 237.975 597.317 229.897 601.866L214.019 610.806C204.434 616.203 192.312 611.403 189.02 600.908L183.565 583.522C180.79 574.676 171.537 569.59 162.582 571.986L144.98 576.697C134.354 579.54 123.806 571.877 123.227 560.892L122.268 542.696C121.78 533.439 114.082 526.211 104.813 526.305L86.5922 526.49C75.5927 526.602 67.2824 516.556 69.4532 505.772L73.0492 487.909C74.8787 478.821 69.2209 469.906 60.2188 467.692L42.5247 463.34C31.8431 460.713 26.292 448.916 31.0765 439.011L39.0018 422.604C43.034 414.256 39.771 404.214 31.6023 399.83L15.5465 391.215C5.85381 386.014 3.41085 373.207 10.5083 364.803L22.265 350.882C28.2464 343.8 27.5834 333.261 20.7615 326.984L7.35266 314.646C-0.742071 307.198 0.0765591 294.187 9.04097 287.812L23.8904 277.252C31.4452 271.879 33.4238 261.507 28.3772 253.731L18.458 238.446C12.4698 229.219 16.4986 216.819 26.7668 212.874L43.7758 206.339C52.4294 203.014 56.9253 193.46 53.9712 184.673L48.1647 167.401C44.6594 156.975 51.6452 145.967 62.5719 144.699L80.6719 142.599C89.8805 141.531 96.6111 133.395 95.9351 124.149L94.6063 105.976C93.8041 95.0054 103.308 86.0807 114.207 87.5702L132.26 90.0374C141.445 91.2927 149.988 85.0862 151.632 75.9628L154.865 58.0305C156.816 47.2049 168.241 40.9241 178.427 45.0771L195.299 51.9566C203.884 55.4566 213.701 51.5696 217.563 43.1418L225.153 26.5767C229.736 16.5765 242.363 13.3343 251.196 19.89L265.828 30.7494C273.272 36.2743 283.748 34.9509 289.585 27.7483L301.056 13.5912Z"/>
</mask>
<path d="M301.056 13.5912C307.981 5.04478 321.019 5.04479 327.944 13.5912L339.415 27.7483C345.252 34.9509 355.728 36.2743 363.172 30.7494L377.804 19.89C386.637 13.3343 399.264 16.5765 403.847 26.5767L411.437 43.1418C415.299 51.5696 425.116 55.4566 433.701 51.9566L450.573 45.0771C460.759 40.9241 472.184 47.2049 474.135 58.0305L477.368 75.9628C479.012 85.0862 487.555 91.2927 496.74 90.0374L514.793 87.5702C525.692 86.0807 535.196 95.0054 534.394 105.976L533.065 124.149C532.389 133.395 539.12 141.531 548.328 142.599L566.428 144.699C577.355 145.967 584.341 156.975 580.835 167.401L575.029 184.673C572.075 193.46 576.571 203.014 585.224 206.339L602.233 212.874C612.501 216.819 616.53 229.219 610.542 238.446L600.623 253.731C595.576 261.507 597.555 271.879 605.11 277.252L619.959 287.812C628.923 294.187 629.742 307.198 621.647 314.646L608.239 326.984C601.417 333.261 600.754 343.8 606.735 350.882L618.492 364.803C625.589 373.207 623.146 386.014 613.453 391.215L597.398 399.83C589.229 404.214 585.966 414.256 589.998 422.604L597.924 439.011C602.708 448.916 597.157 460.713 586.475 463.34L568.781 467.692C559.779 469.906 554.121 478.821 555.951 487.909L559.547 505.772C561.718 516.556 553.407 526.602 542.408 526.49L524.187 526.305C514.917 526.211 507.22 533.439 506.732 542.696L505.773 560.892C505.194 571.877 494.646 579.54 484.02 576.697L466.418 571.986C457.463 569.59 448.21 574.676 445.435 583.522L439.98 600.908C436.688 611.403 424.566 616.203 414.981 610.806L399.103 601.866C391.025 597.317 380.798 599.943 375.91 607.821L366.304 623.304C360.504 632.651 347.57 634.285 339.628 626.674L326.473 614.066C319.78 607.652 309.22 607.652 302.527 614.066L289.372 626.674C281.43 634.285 268.496 632.651 262.696 623.304L253.09 607.821C248.202 599.943 237.975 597.317 229.897 601.866L214.019 610.806C204.434 616.203 192.312 611.403 189.02 600.908L183.565 583.522C180.79 574.676 171.537 569.59 162.582 571.986L144.98 576.697C134.354 579.54 123.806 571.877 123.227 560.892L122.268 542.696C121.78 533.439 114.082 526.211 104.813 526.305L86.5922 526.49C75.5927 526.602 67.2824 516.556 69.4532 505.772L73.0492 487.909C74.8787 478.821 69.2209 469.906 60.2188 467.692L42.5247 463.34C31.8431 460.713 26.292 448.916 31.0765 439.011L39.0018 422.604C43.034 414.256 39.771 404.214 31.6023 399.83L15.5465 391.215C5.85381 386.014 3.41085 373.207 10.5083 364.803L22.265 350.882C28.2464 343.8 27.5834 333.261 20.7615 326.984L7.35266 314.646C-0.742071 307.198 0.0765591 294.187 9.04097 287.812L23.8904 277.252C31.4452 271.879 33.4238 261.507 28.3772 253.731L18.458 238.446C12.4698 229.219 16.4986 216.819 26.7668 212.874L43.7758 206.339C52.4294 203.014 56.9253 193.46 53.9712 184.673L48.1647 167.401C44.6594 156.975 51.6452 145.967 62.5719 144.699L80.6719 142.599C89.8805 141.531 96.6111 133.395 95.9351 124.149L94.6063 105.976C93.8041 95.0054 103.308 86.0807 114.207 87.5702L132.26 90.0374C141.445 91.2927 149.988 85.0862 151.632 75.9628L154.865 58.0305C156.816 47.2049 168.241 40.9241 178.427 45.0771L195.299 51.9566C203.884 55.4566 213.701 51.5696 217.563 43.1418L225.153 26.5767C229.736 16.5765 242.363 13.3343 251.196 19.89L265.828 30.7494C273.272 36.2743 283.748 34.9509 289.585 27.7483L301.056 13.5912Z" fill="#F5EFDB" stroke="#282B28" stroke-width="4" mask="url(#path-1-inside-1)"/>
<mask id="path-2-inside-2" fill="white">
<path d="M301.056 42.6786C307.981 34.1322 321.019 34.1322 327.944 42.6786L336.236 52.9124C342.073 60.1151 352.549 61.4385 359.993 55.9136L370.57 48.0635C379.403 41.5078 392.031 44.7501 396.613 54.7502L402.1 66.7248C405.962 75.1526 415.779 79.0397 424.363 75.5396L436.56 70.5666C446.746 66.4136 458.171 72.6944 460.122 83.5199L462.459 96.4828C464.104 105.606 472.646 111.813 481.831 110.557L494.882 108.774C505.78 107.284 515.284 116.209 514.482 127.18L513.521 140.317C512.845 149.562 519.576 157.698 528.785 158.767L541.869 160.285C552.795 161.552 559.781 172.56 556.276 182.987L552.078 195.472C549.124 204.259 553.62 213.813 562.274 217.138L574.569 221.862C584.837 225.808 588.866 238.207 582.878 247.434L575.708 258.483C570.661 266.26 572.64 276.632 580.195 282.004L590.929 289.638C599.893 296.013 600.712 309.025 592.617 316.473L582.924 325.392C576.102 331.669 575.439 342.207 581.421 349.289L589.919 359.353C597.017 367.757 594.574 380.563 584.881 385.764L573.275 391.992C565.106 396.376 561.843 406.418 565.875 414.765L571.604 426.626C576.389 436.531 570.838 448.328 560.156 450.955L547.365 454.101C538.363 456.315 532.705 465.23 534.535 474.318L537.134 487.231C539.305 498.015 530.995 508.06 519.995 507.949L506.824 507.815C497.554 507.721 489.857 514.949 489.369 524.206L488.676 537.36C488.096 548.345 477.549 556.008 466.923 553.164L454.199 549.759C445.244 547.363 435.991 552.449 433.216 561.295L429.273 573.863C425.98 584.358 413.858 589.158 404.273 583.761L392.795 577.298C384.718 572.75 374.49 575.376 369.603 583.253L362.658 594.446C356.859 603.793 343.924 605.427 335.982 597.815L326.473 588.702C319.78 582.287 309.22 582.287 302.527 588.702L293.018 597.815C285.076 605.427 272.141 603.793 266.342 594.446L259.397 583.253C254.51 575.376 244.282 572.75 236.204 577.298L224.727 583.761C215.142 589.158 203.02 584.358 199.727 573.863L195.784 561.295C193.009 552.449 183.756 547.363 174.801 549.759L162.077 553.164C151.451 556.008 140.904 548.345 140.324 537.36L139.631 524.206C139.143 514.949 131.446 507.721 122.176 507.815L109.004 507.949C98.005 508.06 89.6947 498.015 91.8655 487.231L94.465 474.318C96.2945 465.23 90.6366 456.315 81.6345 454.101L68.8439 450.955C58.1622 448.328 52.6112 436.531 57.3956 426.626L63.1247 414.765C67.1568 406.418 63.8939 396.376 55.7252 391.992L44.1188 385.764C34.4261 380.563 31.9831 367.757 39.0805 359.353L47.5792 349.289C53.5606 342.207 52.8976 331.669 46.0757 325.392L36.3828 316.473C28.288 309.025 29.1066 296.013 38.0711 289.638L48.8054 282.004C56.3602 276.632 58.3388 266.26 53.2922 258.483L46.1218 247.434C40.1337 238.207 44.1625 225.808 54.4306 221.862L66.7261 217.138C75.3797 213.813 79.8756 204.259 76.9214 195.472L72.7241 182.987C69.2188 172.56 76.2046 161.552 87.1313 160.285L100.215 158.767C109.424 157.698 116.155 149.562 115.479 140.317L114.518 127.18C113.716 116.209 123.22 107.284 134.118 108.774L147.169 110.557C156.354 111.813 164.896 105.606 166.541 96.4828L168.878 83.5199C170.829 72.6944 182.254 66.4136 192.44 70.5666L204.637 75.5396C213.221 79.0397 223.038 75.1526 226.9 66.7248L232.387 54.7503C236.969 44.7501 249.597 41.5078 258.43 48.0635L269.007 55.9136C276.451 61.4385 286.927 60.1151 292.764 52.9125L301.056 42.6786Z"/>
</mask>
<path d="M301.056 42.6786C307.981 34.1322 321.019 34.1322 327.944 42.6786L336.236 52.9124C342.073 60.1151 352.549 61.4385 359.993 55.9136L370.57 48.0635C379.403 41.5078 392.031 44.7501 396.613 54.7502L402.1 66.7248C405.962 75.1526 415.779 79.0397 424.363 75.5396L436.56 70.5666C446.746 66.4136 458.171 72.6944 460.122 83.5199L462.459 96.4828C464.104 105.606 472.646 111.813 481.831 110.557L494.882 108.774C505.78 107.284 515.284 116.209 514.482 127.18L513.521 140.317C512.845 149.562 519.576 157.698 528.785 158.767L541.869 160.285C552.795 161.552 559.781 172.56 556.276 182.987L552.078 195.472C549.124 204.259 553.62 213.813 562.274 217.138L574.569 221.862C584.837 225.808 588.866 238.207 582.878 247.434L575.708 258.483C570.661 266.26 572.64 276.632 580.195 282.004L590.929 289.638C599.893 296.013 600.712 309.025 592.617 316.473L582.924 325.392C576.102 331.669 575.439 342.207 581.421 349.289L589.919 359.353C597.017 367.757 594.574 380.563 584.881 385.764L573.275 391.992C565.106 396.376 561.843 406.418 565.875 414.765L571.604 426.626C576.389 436.531 570.838 448.328 560.156 450.955L547.365 454.101C538.363 456.315 532.705 465.23 534.535 474.318L537.134 487.231C539.305 498.015 530.995 508.06 519.995 507.949L506.824 507.815C497.554 507.721 489.857 514.949 489.369 524.206L488.676 537.36C488.096 548.345 477.549 556.008 466.923 553.164L454.199 549.759C445.244 547.363 435.991 552.449 433.216 561.295L429.273 573.863C425.98 584.358 413.858 589.158 404.273 583.761L392.795 577.298C384.718 572.75 374.49 575.376 369.603 583.253L362.658 594.446C356.859 603.793 343.924 605.427 335.982 597.815L326.473 588.702C319.78 582.287 309.22 582.287 302.527 588.702L293.018 597.815C285.076 605.427 272.141 603.793 266.342 594.446L259.397 583.253C254.51 575.376 244.282 572.75 236.204 577.298L224.727 583.761C215.142 589.158 203.02 584.358 199.727 573.863L195.784 561.295C193.009 552.449 183.756 547.363 174.801 549.759L162.077 553.164C151.451 556.008 140.904 548.345 140.324 537.36L139.631 524.206C139.143 514.949 131.446 507.721 122.176 507.815L109.004 507.949C98.005 508.06 89.6947 498.015 91.8655 487.231L94.465 474.318C96.2945 465.23 90.6366 456.315 81.6345 454.101L68.8439 450.955C58.1622 448.328 52.6112 436.531 57.3956 426.626L63.1247 414.765C67.1568 406.418 63.8939 396.376 55.7252 391.992L44.1188 385.764C34.4261 380.563 31.9831 367.757 39.0805 359.353L47.5792 349.289C53.5606 342.207 52.8976 331.669 46.0757 325.392L36.3828 316.473C28.288 309.025 29.1066 296.013 38.0711 289.638L48.8054 282.004C56.3602 276.632 58.3388 266.26 53.2922 258.483L46.1218 247.434C40.1337 238.207 44.1625 225.808 54.4306 221.862L66.7261 217.138C75.3797 213.813 79.8756 204.259 76.9214 195.472L72.7241 182.987C69.2188 172.56 76.2046 161.552 87.1313 160.285L100.215 158.767C109.424 157.698 116.155 149.562 115.479 140.317L114.518 127.18C113.716 116.209 123.22 107.284 134.118 108.774L147.169 110.557C156.354 111.813 164.896 105.606 166.541 96.4828L168.878 83.5199C170.829 72.6944 182.254 66.4136 192.44 70.5666L204.637 75.5396C213.221 79.0397 223.038 75.1526 226.9 66.7248L232.387 54.7503C236.969 44.7501 249.597 41.5078 258.43 48.0635L269.007 55.9136C276.451 61.4385 286.927 60.1151 292.764 52.9125L301.056 42.6786Z" fill="#F07F8D" stroke="#282B28" stroke-width="6" mask="url(#path-2-inside-2)"/>
<circle cx="314.5" cy="320.5" r="237.74" fill="#3E5641" stroke="#282B28" stroke-width="3"/>
<g clip-path="url(#clip0)">
<circle cx="314.5" cy="320.5" r="151.222" fill="#F5EFDB" stroke="#282B28" stroke-width="3"/>
<path d="M429.37 327.939C427.515 356.585 415.024 383.505 394.346 403.416C373.668 423.328 346.296 434.796 317.6 435.569C288.904 436.342 260.955 426.365 239.235 407.595C217.515 388.825 203.592 362.617 200.198 334.112" stroke="#282B28" stroke-width="3"/>
<ellipse cx="428.079" cy="324.337" rx="23.487" ry="18.5958" fill="#F5EFDB"/>
<path fill-rule="evenodd" clip-rule="evenodd" d="M405.278 323.986C407.111 334.121 416.806 341.854 428.492 341.854C440.177 341.854 449.873 334.121 451.706 323.986L453.755 323.986C451.902 335.14 441.297 343.691 428.492 343.691C415.686 343.691 405.081 335.14 403.229 323.986L405.278 323.986Z" fill="black"/>
<path fill-rule="evenodd" clip-rule="evenodd" d="M270.178 339.456C283.986 339.456 295.18 318.934 295.18 293.618C295.18 268.303 283.986 247.781 270.178 247.781C259.731 247.781 250.78 259.528 247.042 276.21L259.607 297.975H245.287C246.484 321.247 257.171 339.456 270.178 339.456Z" fill="#282B28"/>
<path fill-rule="evenodd" clip-rule="evenodd" d="M359.191 339.456C373 339.456 384.193 318.934 384.193 293.618C384.193 268.303 373 247.781 359.191 247.781C348.744 247.781 339.794 259.528 336.055 276.21L348.621 297.975H334.301C335.497 321.247 346.185 339.456 359.191 339.456Z" fill="#282B28"/>
</g>
<g clip-path="url(#clip1)">
<path d="M146.398 301.261L151.776 283.804L139.603 280.054L135.742 270.956L158.39 262.335L164.922 241.133L129.352 255.805L116.992 226.513L110.234 248.451L121.452 274.316L121.411 274.449L103.888 269.051L98.5096 286.507L146.398 301.261Z" fill="#F5EFDB"/>
<path d="M165.43 242.902L197.427 199.977L188.337 193.201L166.922 221.93L159.459 216.367L178.783 190.444L170.984 184.63L151.66 210.553L144.927 205.534L165.924 177.366L156.834 170.59L125.255 212.954L165.43 242.902Z" fill="#F5EFDB"/>
<path d="M201.987 194.601L246.489 164.836L240.186 155.412L210.402 175.333L205.227 167.596L232.102 149.62L226.694 141.534L199.819 159.51L195.15 152.529L224.352 132.997L218.049 123.574L174.129 152.949L201.987 194.601Z" fill="#F5EFDB"/>
<path d="M253.229 163.83L270.847 159.008L266.8 144.225L287.996 138.424C301.766 134.655 307.787 126.694 304.935 116.01C301.942 105.075 292.651 101.088 278.949 104.838L240 115.499L253.229 163.83ZM264.085 134.302L260.334 120.599L275.792 116.368C281.935 114.687 285.975 116.193 287.176 120.581C288.395 125.036 285.685 128.39 279.542 130.071L264.085 134.302Z" fill="#F5EFDB"/>
<path d="M346.896 160.078C364.966 163.578 377.99 158.901 379.891 148.719C381.621 139.787 375.354 133.869 359.06 128.93L350.108 126.198C343.906 124.356 341.384 122.655 341.744 120.8C342.318 118.203 347.79 117.552 354.812 118.84C362.383 120.236 370.052 124.073 374.719 128.684L381.731 119.349C376.443 114.262 367.165 109.899 356.791 107.889C339.27 104.496 326.157 108.158 324.108 118.739C322.417 127.465 328.244 133.084 343.452 137.741L352.322 140.528C359.652 142.803 362.559 144.721 362.147 146.851C361.654 149.393 356.938 150.19 349.998 148.846C340.585 147.023 330.574 141.662 325.75 136.023L317.503 145.475C323.115 151.837 335.078 157.789 346.896 160.078Z" fill="#F07F8D"/>
<path d="M376.624 162.072L390.688 172.001L408.811 146.331L408.926 146.412L404.067 181.446L416.816 190.447L447.746 173.818L447.86 173.899L429.737 199.57L443.801 209.499L472.701 168.563L453.148 154.759L419.525 172.656L419.41 172.575L424.848 134.779L405.524 121.137L376.624 162.072Z" fill="#F07F8D"/>
<path d="M441.69 214.405L452.596 228.883L492.621 198.735L481.715 184.257L441.69 214.405Z" fill="#F07F8D"/>
<path d="M455.906 233.469L476.223 277.739L488.372 272.163L475.673 244.495L509.067 229.169L501.448 212.568L455.906 233.469Z" fill="#F07F8D"/>
<path d="M477.824 281.807L483.04 335.091L494.323 333.986L490.832 298.324L500.096 297.418L503.246 329.597L512.928 328.649L509.778 296.47L518.136 295.652L521.559 330.617L532.842 329.512L527.695 276.925L477.824 281.807Z" fill="#F07F8D"/>
<path d="M480.9 345.666L465.333 396.891L476.18 400.188L486.599 365.903L495.505 368.61L486.104 399.546L495.411 402.374L504.812 371.438L512.848 373.88L502.632 407.495L513.48 410.791L528.844 360.236L480.9 345.666Z" fill="#F5EFDB"/>
<path d="M453.46 413.554L441.084 429.904L466.043 479.956L477.49 464.834L459.485 431.105L459.569 430.993L496.962 439.109L508.366 424.043L453.46 413.554Z" fill="#F5EFDB"/>
<path d="M426.095 447.601L381.103 476.621L387.249 486.148L417.361 466.726L422.406 474.548L395.234 492.074L400.507 500.249L427.679 482.723L432.231 489.781L402.707 508.823L408.852 518.351L453.255 489.711L426.095 447.601Z" fill="#F5EFDB"/>
<path d="M327.983 487.753C323.474 488.754 318.508 491.576 316.359 494.49L320.958 500.997C321.565 499.858 323.068 498.88 324.23 498.622C326.143 498.197 327.486 498.759 328.647 499.792L333.299 504.28C334.855 505.798 336.646 506.763 338.423 507.014L338.438 507.082C329.867 510.777 325.811 517.053 327.434 524.364C329.617 534.202 338.391 538.205 351.509 535.294L392.639 526.165L381.783 477.247L363.95 481.204L367.559 497.465L357.106 499.785C353.895 500.497 350.585 499.798 347.899 497.384L343.687 492.942C339.991 489.532 335.362 486.115 327.983 487.753ZM369.788 507.508L372.472 519.601L354.503 523.589C349.379 524.726 345.872 523.139 345.023 519.313C344.189 515.555 346.695 512.633 351.819 511.496L369.788 507.508Z" fill="#F5EFDB"/>
<path d="M296.822 487.49L278.79 484.572L276.062 501.428L247.087 530.201L266.293 533.31L283.073 514.616L283.142 514.627L293.858 537.772L312.856 540.847L294.093 504.347L296.822 487.49Z" fill="#F5EFDB"/>
<path d="M256.741 481.357L226.198 463.025C209.516 453.013 195.605 455.112 187.321 468.913C179.038 482.715 183.729 495.978 200.411 505.99L230.954 524.322L256.741 481.357ZM235.125 482.83L222.051 504.613L208.91 496.725C200.629 491.755 198.325 484.986 202.503 478.025C206.681 471.064 213.702 469.973 221.983 474.943L235.125 482.83Z" fill="#F5EFDB"/>
<path d="M202.449 450.121L191.135 434.986L181.824 437.141L166.864 417.13L171.524 408.753L160.169 393.563L134.659 443.128L147.355 460.112L202.449 450.121ZM171.447 440.442L150.22 445.126L150.136 445.014L160.72 426.093L171.447 440.442Z" fill="#F5EFDB"/>
<path d="M155.917 373.936L151.161 356.3L134.673 360.747L96.5295 346.171L101.596 364.956L125.537 372.561L125.555 372.629L108.867 391.916L113.878 410.498L139.43 378.382L155.917 373.936Z" fill="#F5EFDB"/>
<path d="M148.633 325.802C148.523 320.484 145.155 316.704 140.607 316.798C135.989 316.893 132.85 320.808 132.96 326.125C133.069 331.443 136.366 335.155 140.984 335.06C145.532 334.966 148.743 331.12 148.633 325.802Z" fill="#F5EFDB"/>
</g>
<defs>
<clipPath id="clip0">
<rect width="305.444" height="305.444" fill="white" transform="translate(161.778 167.778)"/>
</clipPath>
<clipPath id="clip1">
<rect width="436.381" height="441.847" fill="white" transform="translate(96.5295 98.9999)"/>
</clipPath>
</defs>
</svg>
